<?xml version="1.0" encoding="utf-8"?>
<!-- Generator: Adobe Illustrator 24.3.0, SVG Export Plug-In . SVG Version: 6.00 Build 0)  -->
<svg version="1.1" id="Layer_1" xmlns="http://www.w3.org/2000/svg" xmlns:xlink="http://www.w3.org/1999/xlink" x="0px" y="0px"
	 viewBox="0 0 2500 917" style="enable-background:new 0 0 2500 917;" xml:space="preserve">
<style type="text/css">
	.st0{fill:#0071B9;}
	.st1{fill:url(#polygon25_1_);}
	.st2{fill:#1D2C5E;}
	.st3{fill:url(#polygon36_1_);}
	.st4{fill:url(#polygon43_1_);}
	.st5{fill:#312370;}
	.st6{fill:#21386E;}
	.st7{fill:url(#polygon56_1_);}
	.st8{fill:#FFCB05;}
	.st9{fill:#7D7F68;}
	.st10{fill:#C7A008;}
	.st11{fill:#3567B0;}
	.st12{fill:#1E2D5F;}
	.st13{fill:#3466AF;}
	.st14{fill:url(#path196_1_);}
	.st15{fill:url(#path69_2_);}
	.st16{fill:#FFCC01;}
	.st17{fill:url(#SVGID_1_);}
	.st18{fill:url(#polygon16_1_);}
	.st19{fill:url(#polygon78_1_);}
	.st20{fill:url(#SVGID_2_);}
</style>
<g>
	<g>
		<path id="polygon18_2_" class="st0" d="M1634.9,202.3l-4.4,23.7l50-16.7l-6.1-28.9L1634.9,202.3z"/>
		
			<linearGradient id="polygon25_1_" gradientUnits="userSpaceOnUse" x1="1398.3002" y1="1470.9176" x2="1410.3118" y2="1458.0474" gradientTransform="matrix(9.2764 0 0 9.2764 -11714.5215 -13488.5049)">
			<stop  offset="0" style="stop-color:#0070B6"/>
			<stop  offset="1" style="stop-color:#1D2C5E"/>
		</linearGradient>
		<path id="polygon25_2_" class="st1" d="M1340.4,41.9l-162.1,185.8l47.3-13.1l154.2-192.8L1340.4,41.9z"/>
		<path id="polygon27_2_" class="st2" d="M2208.8,296l39.4-21l-11.4,99.9L2208.8,296z"/>
		<path id="polygon29_2_" class="st2" d="M1960.8,360l35.9,7.9l44.7-21.9l-39.4-14.9L1960.8,360z"/>
		
			<linearGradient id="polygon36_1_" gradientUnits="userSpaceOnUse" x1="1345.9081" y1="1492.3977" x2="1344.476" y2="1480.3643" gradientTransform="matrix(9.2764 0 0 9.2764 -11714.5215 -13488.5049)">
			<stop  offset="0" style="stop-color:#0070B6"/>
			<stop  offset="1" style="stop-color:#1D2C5E"/>
		</linearGradient>
		<path id="polygon36_2_" class="st3" d="M741,254.8l5.3,114.8l50-19.3l-14.9-117.4L741,254.8z"/>
		
			<linearGradient id="polygon43_1_" gradientUnits="userSpaceOnUse" x1="1477.1129" y1="1490.0808" x2="1476.5414" y2="1479.2189" gradientTransform="matrix(9.2764 0 0 9.2764 -11714.5215 -13488.5049)">
			<stop  offset="0" style="stop-color:#125D9E"/>
			<stop  offset="1" style="stop-color:#1D2C5E"/>
		</linearGradient>
		<path id="polygon43_2_" class="st4" d="M1999.4,219.8l-39.4,21.9l0.9,118.3l40.3-20.2l12.3-57.8L1999.4,219.8z"/>
		<path id="polygon45_2_" class="st5" d="M1994.1,367.9L1950.3,757l70.1-14l13.1-396.1L1994.1,367.9z"/>
		<path id="polygon47_3_" class="st6" d="M2079.1,775.4l1.8,52.6l134.1,42.9l40.3-21L2123,747.3l-133.2-11.4l-39.4,21L2079.1,775.4z
			"/>
		<path id="polygon49_2_" class="st6" d="M1581.4,682.5l32.4-17.5l21.9,38.6l30.7-16.7l6.1,50.8l195.4,35.1l38.6-21.9l-269-163.9
			l-191,32.4l-36.8,35.9L1581.4,682.5z"/>
		
			<linearGradient id="polygon56_1_" gradientUnits="userSpaceOnUse" x1="1437.0358" y1="1474.42" x2="1424.4299" y2="1494.4738" gradientTransform="matrix(9.2764 0 0 9.2764 -11714.5215 -13488.5049)">
			<stop  offset="0" style="stop-color:#125D9E"/>
			<stop  offset="1" style="stop-color:#1D2C5E"/>
		</linearGradient>
		<path id="polygon56_2_" class="st7" d="M1519.2,204l-39.4,21.9l-70.1,429.4l39.4-21l67.5-241L1519.2,204z"/>
		<path id="polygon58_2_" class="st2" d="M1207.2,261.8l-31.5,16.7l2.6,10.5l74.5-47.3l-32.4-35.1l-42.1,21L1207.2,261.8z"/>
		<path id="polygon60_2_" class="st6" d="M1292.2,769.2L974.1,611.5l39.4-30.7l318.1,166.5L1292.2,769.2z"/>
		<path id="polygon62_2_" class="st2" d="M1003.9,182.1l-48.2,91.1l50.8-14.9l36.8-98.1L1003.9,182.1z"/>
		<path id="polygon71_2_" class="st2" d="M783.9,360.9l36.8,409.2l152.5-21.9l40.3-21L825.1,336.3l-38.6,13.1l-40.3,20.2
			L783.9,360.9z"/>
		<path id="path80_2_" class="st2" d="M1896,684.2l2.6,19.3c14-1.8,28-3.5,41.2-7.9c14.9-5.3,46.4-19.3,57.8-29.8
			C1992.4,667.6,1918.8,686.9,1896,684.2"/>
		<path id="path82_2_" class="st2" d="M1325.5,586.1l6.1,30.7c32.4-5.3,60.5-16.7,88.5-33.3c17.5-10.5,35.9-25.4,42.1-29.8
			C1457.8,556.3,1325.5,586.1,1325.5,586.1L1325.5,586.1z"/>
		<g id="g84_2_" transform="translate(-5.451 -1.686)">
			<path id="path86_2_" class="st8" d="M840.3,428.4l3-14.9l-0.9-14l-5.3-58.7l-0.9-9.6l-8.8,2.6l-27.2,7l-4.4-99.9l199.8-64
				l-1.8,78l14.9,3.5l43.8-83.3l130.6,115.7l5.3,5.3l5.3-5.3c17.5-16.7,39.4-30.7,63.1-40.3l9.6-4.4l-7-8.8l-23.7-28.9l149.9-172.6
				l78.9,117.4l-120.1,64.8l-26.3,14l30.7,0.9c57,0.9,107.8,25.4,142,67.5l12.3,15.8l7.9,9.6l-13.1,14l-8.8,9.6l-29.8,32.4l-5.3,6.1
				l6.1,5.3l28,25.4l10.5,9.6l2.6-14l10.5-66.6l2.6-17.5l2.6-17.5l15.8-99h149l0.9-7l2.6-16.7h129.7l31.5,198l1.8,13.1l10.5-7.9
				c13.1-9.6,27.2-16.7,42.1-22.8c20.2-7.9,40.3-11.4,61.3-11.4c24.5,0,48.2,5.3,68.4,16.7c0.9,0,0.9,0.9,2.6,1.8l9.6,3.5l0.9-10.5
				l2.6-21.9l0.9-7l-7-1.8l-26.3-6.1l-0.9-103.4l200.7,43.8l14.9,74.5h15.8l15.8-64l167.4,40.3l-171.8,516.2l-121.8-38.6l-0.9-47.3
				v-7l-7-0.9l-121.8-17.5l7-62.2l1.8-14.9l-13.1,7c-6.1,3.5-12.3,6.1-18.4,7.9c-20.2,7.9-40.3,11.4-60.5,11.4
				c-6.1,0-11.4,0-17.5-0.9l-10.5-0.9l1.8,10.5l8.8,54.3l-177.9-31.5l-9.6-80.6l-2.6-26.3l-12.3,22.8l-20.2,39.4l-37.7-69.2
				l-11.4-21l-3.5,23.7l-7.9,53.5l-156-24.5l12.3-73.6l2.6-16.7l-14.9,8.8c-25.4,14.9-55.2,27.2-89.4,35.1
				c-12.3,2.6-24.5,5.3-37.7,6.1l-7,0.9V736l-306.7-151.6l-11.4-5.3V722l-137.6,20.2l-6.1-62.2l-1.8-16.7L840.3,428.4z
				 M1140.3,379.3l-15.8,14.9l-41.2,39.4l-8.8,8.8l11.4,4.4l43.8,16.7l13.1,5.3l-2.6-14c-3.5-18.4-4.4-36.8-2.6-54.3L1140.3,379.3z
				 M1319.1,333.8c-16.7,0-33.3,7-44.7,20.2c-17.5,19.3-21,48.2-8.8,71l3.5,6.1l5.3,9.6l7.9-8.8l5.3-5.3l60.5-68.4l4.4-5.3l7.9-8.8
				l-10.5-4.4l-7-2.6C1334,335.5,1327,333.8,1319.1,333.8L1319.1,333.8z"/>
		</g>
		<path id="path88_2_" class="st9" d="M1405.3,433.6l-1.8,1.8C1404.4,435.4,1405.3,434.5,1405.3,433.6z"/>
		<path id="polygon90_2_" class="st9" d="M1457.8,386.3l29.8-32.4l-10.5,10.5v-0.9l-8.8,9.6l-29.8,31.5l28,25.4l5.3-31.5l14,12.3
			L1457.8,386.3z"/>
		<path id="polygon92_2_" class="st9" d="M1457.8,386.3l28,24.5l10.5-66.6l-8.8,9.6L1457.8,386.3z"/>
		<path id="path94_2_" class="st9" d="M1083.6,438"/>
		<path id="path96_5_" class="st10" d="M1250.1,466c2.6,2.6,0,0.9,2.6,2.6l18.4-13.1c-2.6-1.8-5.3-4.4-7.9-6.1
			c-26.3-24.5-19.3-78.9-2.6-108.7C1215.1,377.5,1217.7,433.6,1250.1,466"/>
		<path id="path98_2_" class="st10" d="M1471.9,496.7c-30.7,25.4-64.8,41.2-110.4,52.6c-9.6,2.6-20.2,4.4-28.9,4.4
			c-72.7,7-133.2-26.3-156-79.7c-2.6-6.1-5.3-13.1-7-20.2c-10.5-45.6-1.8-85.9,21-118.3c2.6-3.5,4.4-6.1,7-8.8
			c-0.9,0.9-2.6,1.8-3.5,2.6c-8.8,7.9-16.7,15.8-22.8,25.4c-22.8,31.5-31.5,72.7-21,118.3c1.8,7,3.5,14,7,20.2
			c22.8,54.3,84.1,87.6,156,80.6c9.6-0.9,19.3-2.6,29.8-5.3c45.6-11.4,80.6-27.2,110.4-52.6c7-6.1,14.9-13.1,21.9-20.2l-0.9-0.9
			C1472.7,495.8,1471.9,495.8,1471.9,496.7"/>
		<path id="polygon100_2_" class="st10" d="M961,359.1l80.6-113.9l-3.5-2.6l-78,109.5L961,359.1z"/>
		<path id="polygon102_2_" class="st10" d="M1496.4,344.2l-10.5,66.6l-14-12.3l-5.3,31.5l-28-25.4l29.8-31.5l8.8-9.6v0.9l10.5-10.5
			L1496.4,344.2z"/>
		<path id="polygon104_2_" class="st10" d="M1396.5,156.7l28-12.3l-51.7-66.6l-16.7,24.5L1396.5,156.7z"/>
		<path id="polygon116_2_" class="st10" d="M956.6,545.8l0.9,148.1l23.7,1.8l-5.3-169.1L956.6,545.8z"/>
		<path id="polygon118_2_" class="st10" d="M821.6,262.7v13.1l112.2-33.3l7.9,142.8l19.3-26.3l-4.4-142.8L821.6,262.7z"/>
		<path id="polygon120_2_" class="st10" d="M1159,313.6l-104.3-96.4l-13.1,28l92.9,86.8L1159,313.6z"/>
		<path id="path122_2_" class="st10" d="M1143.2,493.2L1019.7,452l-17.5,19.3l122.7,49.1c14,26.3,35.1,49.1,61.3,64.8
			c25.4,15.8,55.2,25.4,85.9,28v60.5l19.3,9.6l6.1-91.1L1143.2,493.2L1143.2,493.2z"/>
		<path id="path124_5_" class="st10" d="M1341.3,476.5c30.7-7,47.3-22.8,63.1-40.3c-11.4,9.6-67.5,21.9-77.1,24.5l-18.4,20.2
			C1316.7,480.9,1330.8,479.2,1341.3,476.5"/>
		<path id="path126_5_" class="st10" d="M1286.1,266.2c-56.1,7-85,54.3-89.4,59.6c21-17.5,46.4-30.7,75.4-36.8
			c69.2-16.7,129.7,4.4,167.4,50.8l23.7-19.3C1425.4,275,1355.3,249.6,1286.1,266.2"/>
		<path id="path128_5_" class="st10" d="M1473.6,495c7-5.3,18.4-11.4,25.4-18.4l-74.5-66.6c-6.1,7-10.5,18.4-17.5,23.7L1473.6,495
			L1473.6,495z"/>
		<path id="path130_2_" class="st10" d="M1856.6,673.7c-78-64.8-73.6-202.4-35.1-246.2L1787.3,211l-75.4,9.6l-3.5,19.3h57
			l30.7,196.3c-38.6,43.8-57,102.5-44.7,156.9c9.6,42.1,35.9,75.4,72.7,94.6c3.5,1.8,7.9,3.5,11.4,5.3l0.9,2.6l22.8,3.5
			C1858.3,700,1860.9,675.5,1856.6,673.7L1856.6,673.7z"/>
		<path id="polygon132_5_" class="st10" d="M1556,242.6l-3.5,19.3h85.9l25.4,139.3l19.3-19.3l-20.2-147.2L1556,242.6z"/>
		<path id="polygon134_2_" class="st10" d="M1703.2,512.5l-28,71.9l7,19.3l39.4-109.5L1703.2,512.5z"/>
		<path id="polygon136_2_" class="st10" d="M1620.8,467.8l-19.3,19.3l-21,129.7l20.2,7L1620.8,467.8z"/>
		<path id="path138_2_" class="st10" d="M2007.3,425.7c11.4,7.9,21,18.4,28,30.7c6.1,9.6,9.6,19.3,13.1,31.5
			c9.6,39.4-1.8,81.5-26.3,114.8c-2.6,3.5-5.3,7-7.9,9.6c9.6-8.8,132.3-99,13.1-217.3c-131.4-42.9-181.4,42.1-185.8,48.2
			c14-11.4,29.8-21.9,47.3-28C1932.8,397.7,1976.6,403.8,2007.3,425.7"/>
		<path id="path140_2_" class="st10" d="M1941.6,434.5c0,0.9,19.3-19.3,19.3-19.3c-23.7,0.9-35.1,12.3-33.3,17.5
			c-1.8,1.8-2.6,4.4-3.5,6.1C1928.4,436.2,1938.1,434.5,1941.6,434.5"/>
		<path id="path142_2_" class="st10" d="M1985.4,464.3c0.9,3.5,0.9,6.1,0.9,9.6c0,4.4-1.8,8.8-3.5,12.3c3.5-1.8,31.5-10.5,21-42.1
			C2004.7,445.9,1984.5,464.3,1985.4,464.3"/>
		<path id="path144_2_" class="st10" d="M1923.2,563.3c26.3,0.9,56.1-14.9,77.1-43.8c-53.5,11.4-110.4-78.9-105.2-87.6
			c-20.2,14.9-38.6,42.9-39.4,63.1C1853.9,531.8,1884.6,561.6,1923.2,563.3"/>
		<path id="polygon146_2_" class="st10" d="M2218.5,797.3l12.3,7.9L2385,342.5l-115.7-26.3l-0.9,27.2l92.9,20.2L2218.5,797.3z"/>
		<path id="polygon148_2_" class="st10" d="M2035.3,266.2l0.9,26.3l122.7,24.5l47.3,224.3l19.3-19.3l-45.6-227L2035.3,266.2z"/>
		<path id="polygon150_2_" class="st10" d="M2130,522.1l-34.2,191l19.3,6.1l34.2-216.5L2130,522.1z"/>
		<path id="path156_4_" class="st9" d="M1336,346.9c-18.4-7-43.8-5.3-57.8,10.5c-3.5,3.5-9.6,12.3-11.4,16.7
			c13.1-10.5,37.7-13.1,52.6-7L1336,346.9L1336,346.9z"/>
		<path id="path156_3_" class="st9" d="M750.7,494.7c-18.4-7-43.8-5.3-57.8,10.5c-3.5,3.5-9.6,12.3-11.4,16.7
			c13.1-10.5,37.7-13.1,52.6-7L750.7,494.7L750.7,494.7z"/>
		<g id="g166_2_" transform="translate(-5.451 -1.686)">
			<g id="g168_2_">
				<path id="path170_2_" class="st11" d="M1369.9,346c-30.7-28-78-26.3-106,4.4c-28,30.7-26.3,78,4.4,106c2.6,2.6,5.3,4.4,7.9,6.1
					l99-112.2C1373.5,349.5,1371.7,347.8,1369.9,346z M1277.1,424.9c-9.6-17.5-7.9-40.3,7-56.1c14-14.9,35.1-19.3,53.5-12.3
					L1277.1,424.9L1277.1,424.9z"/>
			</g>
		</g>
		<path id="polygon172_2_" class="st12" d="M1496.4,332l-54.3,52.6l51.7,46.4L1496.4,332z"/>
		<path id="path174_2_" class="st13" d="M2003.8,445c0.9,3.5,0.9,7,0.9,10.5c-0.9,21-20.2,36.8-43.8,35.9
			c-23.7-0.9-42.1-18.4-41.2-39.4c0.9-19.3,18.4-35.1,39.4-35.9c-4.4-0.9-8.8-1.8-13.1-1.8c-39.4-1.8-71,26.3-72.7,60.5
			c-1.8,36.8,28,67.5,66.6,68.4c39.4,1.8,71-26.3,72.7-63.1C2015.2,467.8,2010.8,455.5,2003.8,445"/>
		<g id="g185_2_" transform="translate(-5.451 -1.686)">
			<g id="g187_2_">
				
					<linearGradient id="path196_1_" gradientUnits="userSpaceOnUse" x1="1513.7781" y1="-1170.7739" x2="1691.6613" y2="-1170.7739" gradientTransform="matrix(9.2764 0 0 -9.2764 -13257.3262 -10423.002)">
					<stop  offset="0" style="stop-color:#3C5AA6"/>
					<stop  offset="0.933" style="stop-color:#2B73B9"/>
					<stop  offset="1" style="stop-color:#2A75BB"/>
				</linearGradient>
				<path id="path196_2_" class="st14" d="M833.3,399.5 M860.5,679l6.1,71l152.5-22.8V590.5l318.1,157.7V596.7
					c13.1-0.9,25.4-3.5,38.6-6.1c35.1-8.8,64.8-20.2,92-35.9l-13.1,81.5l171.8,27.2l9.6-62.2l44.7,83.3l27.2-52.6l9.6,86.8
					l194.5,34.2l-10.5-65.7c26.3,2.6,54.3-0.9,81.5-10.5c6.1-2.6,13.1-5.3,18.4-8.8l-7.9,70.1l129.7,18.4l0.9,53.5l135,42.1
					l176.1-530.2L2253,276.8l0,0l-17.5,71.9l-15.8-79.7l-215.6-47.3l1.8,120.1l32.4,7l-2.6,21.9c0,0-0.9,0-0.9-0.9
					c-40.3-21-90.3-23.7-136.7-5.3c-15.8,6.1-30.7,14-43.8,23.7L1821.8,183H1679l-3.5,23.7h-150.7l-17.5,105.2l-12.3-15.8
					c-36.8-44.7-89.4-69.2-148.1-71l127.9-68.4l-89.4-133.2l-161.2,185.8l28,34.2c-25.4,10.5-47.3,24.5-65.7,42.1L1048,162.9
					l-48.2,92l1.8-89.4l-216.5,69.2l6.1,115.7l36.8-9.6l5.3,58.7L860.5,679z M1492.3,355.7l8.8-9.6l-10.5,66.6l-28-25.4
					L1492.3,355.7z M1378.4,82.3l47.3,64l-135,66.6l-9.6-14C1281.1,199.7,1378.4,82.3,1378.4,82.3z M893.8,637l-17.5-206.8
					 M864.9,290.8l-36.8,9.6l-1.8-35.1L957.8,226l7.9,135l96.4-135.8l95.5,90.3l-132.3,139.3l124.4,49.1
					c14,26.3,35.1,48.2,61.3,64.8c25.4,15.8,55.2,25.4,85.9,28V686l0,0L980.6,528.3l0.9,165.6l-81.5,11.4l-6.1-68.4 M1133,456.5
					l-43.8-16.7l41.2-39.4C1127.8,418.8,1128.7,437.2,1133,456.5z M1476.6,498.5c-30.7,25.4-64.8,41.2-110.4,52.6
					c-9.6,2.6-20.2,4.4-28.9,4.4c-72.7,7-133.2-26.3-156-79.7c-2.6-6.1-5.3-13.1-7-20.2c-10.5-45.6-1.8-85.9,21-118.3
					c6.1-9.6,14-17.5,22.8-25.4c21-19.3,48.2-32.4,78.9-40.3c69.2-16.7,129.7,4.4,167.4,50l-131.4,140.2c8.8,1.8,22.8-0.9,33.3-3.5
					c31.5-7.9,49.1-24.5,64-42.1l52.6,47.3l15.8,14C1491.5,485.4,1484.4,492.4,1476.6,498.5z M1756.1,685.2l-28.9-189.3l-40.3,104.3
					l-60.5-130.6h-0.9l-23.7,151.6l-100.8-17.5l14-84.1c3.5-3.5,7.9-7,11.4-11.4l32.4-33.3l-31.5-28.9l34.2-201.6h101.7l25.4,139.3
					l28.9-161.2h72.7l30.7,196.3c-38.6,43.8-57,102.5-44.7,156.9c9.6,42.1,35.9,75.4,72.7,95.5c3.5,1.8,7.9,3.5,11.4,5.3l3.5,25.4
					L1756.1,685.2z M2007.6,623c-11.4,7.9-23.7,14.9-36.8,19.3c-26.3,9.6-51.7,12.3-75.4,7c-15.8-3.5-30.7-9.6-43.8-18.4
					c-20.2-14.9-35.1-35.9-42.1-63.1c-7.9-32.4-0.9-67.5,16.7-98.1c8.8-14.9,20.2-28.9,33.3-41.2c14.9-13.1,32.4-24.5,50.8-31.5
					c44.7-16.7,88.5-10.5,119.2,11.4c11.4,7.9,21,18.4,28,30.7c5.3,9.6,9.6,20.2,12.3,31.5c9.6,39.4-1.8,81.5-26.3,114.8
					C2035.7,600.2,2022.5,612.4,2007.6,623L2007.6,623z M2235.5,801.7l-74.5-21.9l-6.1-275.2l-37.7,212.1l-81.5-13.1l6.1-61.3
					c53.5-44.7,81.5-115.7,65.7-180.5c-7-28-21-53.5-42.1-71.9l7-71.9l-30.7-7.9l0.9-38.6l140.2,28l47.3,223.5l48.2-200.7
					l106.9,23.7L2235.5,801.7L2235.5,801.7z"/>
			</g>
		</g>
		<path id="path198_2_" d="M2330.7,769.2h3.5c4.4,0,7.9-1.8,7.9-6.1c0-2.6-2.6-6.1-7.9-6.1h-3.5V769.2L2330.7,769.2z M2330.7,787.6
			h-5.3v-33.3c2.6-0.9,5.3-0.9,9.6-0.9c5.3,0,8.8,0.9,10.5,2.6c1.8,1.8,3.5,3.5,3.5,7c0,4.4-2.6,7-6.1,7.9c2.6,0.9,5.3,3.5,5.3,7.9
			c0.9,5.3,1.8,7,1.8,7.9h-5.3c-0.9-0.9-1.8-4.4-2.6-8.8c-0.9-4.4-2.6-6.1-7-6.1h-4.4L2330.7,787.6L2330.7,787.6z M2336.8,744.7
			c-13.1,0-23.7,11.4-23.7,25.4c0,14,10.5,25.4,24.5,25.4c13.1,0,23.7-11.4,23.7-25.4C2360.4,756.1,2349.9,744.7,2336.8,744.7z
			 M2336.8,740.3c16.7,0,28.9,13.1,28.9,29.8s-13.1,29.8-29.8,29.8s-29.8-13.1-29.8-29.8C2307,753.5,2320.1,740.3,2336.8,740.3z"/>
	</g>
	<g>
		
			<linearGradient id="path69_2_" gradientUnits="userSpaceOnUse" x1="1323.6238" y1="1495.1084" x2="1334.7355" y2="1516.9618" gradientTransform="matrix(9.2764 0 0 9.2764 -11714.5215 -13488.5049)">
			<stop  offset="0" style="stop-color:#105FA1"/>
			<stop  offset="1" style="stop-color:#1D2C5E"/>
		</linearGradient>
		<path id="path69_1_" class="st15" d="M612.6,439.7c-125.4,59.7-94,202.8-48.6,251.8c46.9,50.5,152.1,94.5,309.6-22.2
			c-42.9,26.3-292-123.3-292-123.3L612.6,439.7z"/>
		<g>
			<g>
				<path class="st16" d="M825.6,560.1c0,0-44.1,48.7-88.2,40.3c20.5-21.3,116.3-126.2,116.3-126.2s-32.7-51.7-109.5-51.7
					c-92,0-158.2,67.7-158.2,139.1c0,75.3,63.9,126.2,133.8,126.2c75.3,0,134.6-35.7,165-70.7C874.2,603.5,825.6,560.1,825.6,560.1z
					 M685.7,596.2c-27.4-16-45.1-67.9-9.1-103.7c32.6-32.5,75.2-18.9,99.2,3.3L685.7,596.2z"/>
				<linearGradient id="SVGID_1_" gradientUnits="userSpaceOnUse" x1="555.0023" y1="555.1687" x2="925.1224" y2="555.1687">
					<stop  offset="0" style="stop-color:#3C5AA6"/>
					<stop  offset="0.933" style="stop-color:#2B73B9"/>
					<stop  offset="1" style="stop-color:#2A75BB"/>
				</linearGradient>
				<path class="st17" d="M744.2,422.5c76.8,0,109.5,51.7,109.5,51.7s-95.8,104.9-116.3,126.2c3.5,0.7,7,1,10.4,1
					c40.4,0,77.8-41.3,77.8-41.3s48.7,43.3,59.3,57c-30.4,35-89.7,70.7-165,70.7c-70,0-133.8-50.9-133.8-126.2
					C586.1,490.2,652.2,422.5,744.2,422.5 M685.7,596.2l90.1-100.4c-13.7-12.8-33.6-22.6-54.2-22.6c-15.3,0-31.1,5.5-45,19.3
					C640.6,528.4,658.3,580.3,685.7,596.2 M744.2,391.4c-51.2,0-99,18.1-134.6,51c-34.7,32-54.6,75.4-54.6,119.2
					c0,44.3,18.1,85,51,114.5c30.8,27.6,71.3,42.8,113.9,42.8c39.5,0,77.4-8.5,112.6-25.2c30-14.3,56.3-33.7,75.8-56.2l16.8-19.3
					l-15.7-20.2c-11.5-14.8-51.3-50.5-63.2-61.2l-4.3-3.8c18.6-20.3,33.2-36.3,34.7-37.9l16-17.5l-12.7-20
					c-1.2-1.8-12-18.4-33.9-34.4C817.5,402.4,782.2,391.4,744.2,391.4L744.2,391.4z M694.5,509c17.6-16.6,46.3-6.5,47.9-6.3
					l-53.1,62.8C689.2,565.6,670.1,534.7,694.5,509z"/>
			</g>
			<path id="path126_4_" class="st10" d="M728.2,423.2c-66.4,4-105.8,50-110.2,55.2c50-48,136.8-68.4,222.3,10.4l13.4-14.7
				C816,428.6,778.8,420.1,728.2,423.2z"/>
			<g>
				<path id="path124_4_" class="st10" d="M809.4,575c-41.5,28.7-56.6,27.7-72,25.4l-15.3,17.4C730,617.8,775,615.8,809.4,575z"/>
				<path id="path128_4_" class="st10" d="M868.1,633.8c7-5.3,16.7-16.7,16.7-16.7c-12-15.7-59.3-57-59.3-57
					c-7.2,6.4-9.2,9.7-16.2,14.9L868.1,633.8z"/>
			</g>
			<path id="path96_4_" class="st10" d="M669.9,605.8l13.2-11.3c-16.5-11.4-43.3-53.2-12.6-95C610.7,560.3,669.9,605.8,669.9,605.8z
				"/>
		</g>
	</g>
	<g>
		
			<linearGradient id="polygon16_1_" gradientUnits="userSpaceOnUse" x1="1284.1912" y1="1504.5591" x2="1274.3356" y2="1486.1936" gradientTransform="matrix(9.2764 0 0 9.2764 -11714.5215 -13488.5049)">
			<stop  offset="0" style="stop-color:#0070B6"/>
			<stop  offset="1" style="stop-color:#1D2C5E"/>
		</linearGradient>
		<path id="polygon16_3_" class="st18" d="M91.2,309.6l96.6,188.9l29.9-27.4l-97.3-197L91.2,309.6z"/>
		
			<linearGradient id="polygon78_1_" gradientUnits="userSpaceOnUse" x1="1292.8236" y1="1499.0773" x2="1302.7854" y2="1522.17" gradientTransform="matrix(9.2764 0 0 9.2764 -11714.5215 -13488.5049)">
			<stop  offset="0" style="stop-color:#105FA1"/>
			<stop  offset="1" style="stop-color:#1D2C5E"/>
		</linearGradient>
		<path id="polygon78_3_" class="st19" d="M218.7,485.1l175,398l138.6-57.9l36.7-24.4L251.1,441.6l-29.4,25.8l-33.9,31.1
			L218.7,485.1z"/>
		<g>
			<polygon class="st16" points="187.8,309 239.5,414.9 273.4,403 450,799.9 519.9,773.7 464.3,586.6 588.6,520.4 568.2,440.5 
				432.1,478.3 400.1,367.9 592.5,322.1 568.1,249 			"/>
			<linearGradient id="SVGID_2_" gradientUnits="userSpaceOnUse" x1="135.3156" y1="548.6911" x2="660.3403" y2="519.5945">
				<stop  offset="0" style="stop-color:#2A75BB"/>
				<stop  offset="6.699997e-02" style="stop-color:#2B73B9"/>
				<stop  offset="0.2755" style="stop-color:#3268B1"/>
				<stop  offset="0.6153" style="stop-color:#3A5EA9"/>
				<stop  offset="1" style="stop-color:#3C5AA6"/>
			</linearGradient>
			<path class="st20" d="M568.1,249l24.4,73l-192.4,45.8l31.9,110.4l136.2-37.8l20.4,80l-124.4,66.2l55.6,187.1l-70,26.2L273.4,403
				l-33.9,11.9L187.8,309L568.1,249 M599,198.3l-37.9,6l-380.4,60l-60.6,9.6l27,55.1l51.7,105.8l17.7,36.2l32.5-11.4l159.6,358.7
				l17.3,39l40-14.9l70-26.2l39.7-14.8l-12.1-40.6l-45.1-151.6l91.6-48.8l31.4-16.7l-8.8-34.5l-20.4-80l-11.5-44.9l-44.6,12.4
				l-92.9,25.8l-6.2-21.6L603,366.2l48.2-11.5l-15.7-47l-24.4-73L599,198.3L599,198.3z"/>
		</g>
		<path id="polygon132_4_" class="st10" d="M187.8,309l9.1,18.7l351.9-60.6l20.2,60.5l23.5-5.6l-24.4-73L187.8,309z"/>
		<path id="path154_3_" class="st10" d="M573.6,528.4l15-8l-20.4-80l-136.2,37.8l-31.9-110.4l-13.4,19.5L418.6,502l139.7-45.6
			L573.6,528.4z"/>
		<path id="polygon152_3_" class="st10" d="M519.9,773.7l-55.6-187.1l-19.5,18.8l57.4,174.9L519.9,773.7z"/>
	</g>
</g>
</svg>
